<?xml version="1.0" encoding="UTF-8" standalone="no"?>
<svg
   version="1.1"
   width="3171.4285714285716"
   height="2364.894241799851"
   viewBox="0 0 3171.4285714285716 2364.894241799851"
   id="svg5"
   sodipodi:docname="Color logo - no background - no name.svg"
   inkscape:version="1.3 (0e150ed6c4, 2023-07-21)"
   xmlns:inkscape="http://www.inkscape.org/namespaces/inkscape"
   xmlns:sodipodi="http://sodipodi.sourceforge.net/DTD/sodipodi-0.dtd"
   xmlns:xlink="http://www.w3.org/1999/xlink"
   xmlns="http://www.w3.org/2000/svg"
   xmlns:svg="http://www.w3.org/2000/svg">
  <defs
     id="defs5">
    <linearGradient
       inkscape:collect="always"
       xlink:href="#SvgjsLinearGradient5134"
       id="linearGradient11"
       gradientTransform="scale(0.91546138,1.0923454)"
       x1="25.322502"
       y1="888.32906"
       x2="83.912028"
       y2="888.32906"
       gradientUnits="userSpaceOnUse" />
    <linearGradient
       inkscape:collect="always"
       xlink:href="#SvgjsLinearGradient5134"
       id="linearGradient12"
       gradientTransform="scale(0.76594363,1.3055791)"
       x1="44.401078"
       y1="760.75949"
       x2="58.389094"
       y2="760.75949"
       gradientUnits="userSpaceOnUse" />
    <linearGradient
       inkscape:collect="always"
       xlink:href="#SvgjsLinearGradient5134"
       id="linearGradient13"
       gradientTransform="scale(0.76594447,1.3055777)"
       x1="72.196554"
       y1="760.7589"
       x2="86.184554"
       y2="760.7589"
       gradientUnits="userSpaceOnUse" />
    <linearGradient
       inkscape:collect="always"
       xlink:href="#SvgjsLinearGradient5134"
       id="linearGradient14"
       gradientTransform="scale(0.6003836,1.6656018)"
       x1="74.389795"
       y1="592.89368"
       x2="92.205869"
       y2="592.89368"
       gradientUnits="userSpaceOnUse" />
    <linearGradient
       inkscape:collect="always"
       xlink:href="#SvgjsLinearGradient5134"
       id="linearGradient15"
       gradientTransform="scale(0.91546138,1.0923454)"
       x1="25.322502"
       y1="888.32906"
       x2="83.912028"
       y2="888.32906"
       gradientUnits="userSpaceOnUse" />
    <linearGradient
       inkscape:collect="always"
       xlink:href="#SvgjsLinearGradient5134"
       id="linearGradient16"
       gradientTransform="scale(0.91546138,1.0923454)"
       x1="25.322502"
       y1="16.478281"
       x2="83.912028"
       y2="16.478281"
       gradientUnits="userSpaceOnUse" />
    <linearGradient
       inkscape:collect="always"
       xlink:href="#SvgjsLinearGradient5137"
       id="linearGradient17"
       gradientTransform="scale(4.0031747,0.24980174)"
       x1="8.6654959"
       y1="90.3456"
       x2="8.7842941"
       y2="90.3456"
       gradientUnits="userSpaceOnUse" />
    <linearGradient
       inkscape:collect="always"
       xlink:href="#SvgjsLinearGradient5137"
       id="linearGradient18"
       gradientTransform="scale(4.0031747,0.24980174)"
       x1="8.6654959"
       y1="90.3456"
       x2="8.7842941"
       y2="90.3456"
       gradientUnits="userSpaceOnUse" />
  </defs>
  <sodipodi:namedview
     id="namedview5"
     pagecolor="#ffffff"
     bordercolor="#000000"
     borderopacity="0.25"
     inkscape:showpageshadow="2"
     inkscape:pageopacity="0.0"
     inkscape:pagecheckerboard="0"
     inkscape:deskcolor="#d1d1d1"
     inkscape:zoom="0.24308817"
     inkscape:cx="1207.3809"
     inkscape:cy="1421.295"
     inkscape:window-width="1920"
     inkscape:window-height="1009"
     inkscape:window-x="1912"
     inkscape:window-y="-8"
     inkscape:window-maximized="1"
     inkscape:current-layer="svg5" />
  <g
     id="g11"
     transform="matrix(1.639659,0,0,1.6359647,-985.87693,-124.20075)">
    <g
       transform="matrix(8.5714286,0,0,8.5714286,85.714286,85.714286)"
       id="g5">
      <defs
         id="SvgjsDefs5129">
        <linearGradient
           id="SvgjsLinearGradient5134">
          <stop
             id="SvgjsStop5135"
             stop-color="#ef4136"
             offset="0" />
          <stop
             id="SvgjsStop5136"
             stop-color="#fbb040"
             offset="1" />
        </linearGradient>
        <linearGradient
           id="SvgjsLinearGradient5137">
          <stop
             id="SvgjsStop5138"
             stop-color="#ef4136"
             offset="0" />
          <stop
             id="SvgjsStop5139"
             stop-color="#fbb040"
             offset="1" />
        </linearGradient>
      </defs>
      <g
         id="SvgjsG5130"
         featureKey="symbolFeature-0"
         transform="matrix(2.6101652,0,0,2.6101652,44.49175,-46.982655)"
         fill="url(#SvgjsLinearGradient5134)"
         style="fill:url(#linearGradient16)">
        <g
           transform="translate(0,-952.36216)"
           id="g4"
           style="fill:url(#linearGradient15)">
          <path
             d="m 50.196374,970.37485 a 1.5043353,1.4942442 0 0 0 -1.233658,0.6716 c -2.738176,3.9713 -11.417261,7.34737 -21.347025,7.40573 a 1.5043353,1.4942442 0 0 0 -0.0588,0 1.5043353,1.4942442 0 0 0 -0.1952,-0.0204 1.5043353,1.4942442 0 0 0 -1.479617,1.19072 c 0,0 -1.500798,6.74949 -2.252616,14.91315 -0.751859,8.16385 -0.906859,17.72395 2.393136,23.89635 2.472135,4.6239 8.321266,8.3404 13.542957,11.1693 4.829712,2.6165 8.813046,4.2 9.439845,4.4467 a 1.5043353,1.4942442 0 0 0 0.995518,0.3123 1.5043353,1.4942442 0 0 0 1.007238,-0.3201 1.5043353,1.4942442 0 0 0 0.006,0 c 0.652579,-0.2564 4.616113,-1.828 9.428125,-4.4349 5.221671,-2.8289 11.062982,-6.5454 13.535137,-11.1693 3.299995,-6.1724 3.144975,-15.7325 2.393116,-23.89635 -0.751858,-8.16366 -2.252576,-14.91315 -2.252576,-14.91315 a 1.5043353,1.4942442 0 0 0 -1.518677,-1.19072 1.5043353,1.4942442 0 0 0 -0.125,0 c -9.540984,-0.038 -17.922891,-3.23493 -20.847286,-7.09347 a 1.5043353,1.4942442 0 0 0 -1.432777,-0.98004 z m -0.0274,3.89236 c 4.193413,4.42323 12.24024,6.91019 21.225985,7.12867 0.301139,1.42257 1.346777,6.511 1.983236,13.42181 0.732479,7.95281 0.579679,17.28921 -2.057416,22.22151 -1.809177,3.3841 -7.288768,7.2212 -12.32098,9.9474 -4.555432,2.468 -8.257306,3.95 -8.998685,4.2436 -0.741419,-0.2937 -4.443253,-1.7756 -8.998705,-4.2436 -5.032212,-2.7262 -10.511763,-6.5633 -12.32098,-9.9474 -2.637095,-4.9323 -2.789815,-14.2687 -2.057416,-22.22151 0.636159,-6.90741 1.681357,-11.99164 1.983236,-13.41801 9.141745,-0.21772 17.311752,-2.70322 21.561725,-7.13247 z"
             style="font-style:normal;font-variant:normal;font-weight:normal;font-stretch:normal;font-size:medium;line-height:normal;font-family:sans-serif;text-indent:0;text-align:start;text-decoration:none;text-decoration-line:none;text-decoration-style:solid;letter-spacing:normal;word-spacing:normal;text-transform:none;writing-mode:lr-tb;direction:ltr;baseline-shift:baseline;text-anchor:start;white-space:normal;clip-rule:nonzero;display:inline;overflow:visible;visibility:visible;opacity:1;isolation:auto;mix-blend-mode:normal;color-interpolation:sRGB;color-interpolation-filters:linearRGB;solid-opacity:1;fill:url(#linearGradient11);fill-opacity:1;fill-rule:nonzero;stroke:none;stroke-width:0.881662;stroke-linecap:round;stroke-linejoin:round;stroke-miterlimit:4;stroke-dasharray:none;stroke-dashoffset:0;stroke-opacity:1;color-rendering:auto;image-rendering:auto;shape-rendering:auto;text-rendering:auto;enable-background:accumulate"
             id="path1" />
          <path
             style="font-style:normal;font-variant:normal;font-weight:normal;font-stretch:normal;font-size:medium;line-height:normal;font-family:sans-serif;text-indent:0;text-align:start;text-decoration:none;text-decoration-line:none;text-decoration-style:solid;letter-spacing:normal;word-spacing:normal;text-transform:none;writing-mode:lr-tb;direction:ltr;baseline-shift:baseline;text-anchor:start;white-space:normal;clip-rule:nonzero;display:inline;overflow:visible;visibility:visible;opacity:1;isolation:auto;mix-blend-mode:normal;color-interpolation:sRGB;color-interpolation-filters:linearRGB;solid-opacity:1;fill:url(#linearGradient12);fill-opacity:1;fill-rule:nonzero;stroke:none;stroke-width:3.6248;stroke-linecap:round;stroke-linejoin:round;stroke-miterlimit:4;stroke-dasharray:none;stroke-dashoffset:0;stroke-opacity:1;color-rendering:auto;image-rendering:auto;shape-rendering:auto;text-rendering:auto;enable-background:accumulate"
             d="m 43.208647,993.23169 a 1.5040573,1.496248 0 0 1 1.043719,2.57153 l -6.61075,6.55388 6.61075,6.5539 a 1.5040573,1.496248 0 1 1 -2.123097,2.1185 l -7.678767,-7.6131 a 1.5040573,1.496248 0 0 1 0,-2.1185 l 7.678767,-7.61475 a 1.5040573,1.496248 0 0 1 1.079378,-0.45146 z"
             id="path2" />
          <path
             d="m 56.812659,993.22983 a 1.5040573,1.496248 0 0 0 -1.043719,2.57153 l 6.61075,6.55384 -6.61075,6.5539 a 1.5040573,1.496248 0 1 0 2.123097,2.1185 l 7.678767,-7.6131 a 1.5040573,1.496248 0 0 0 0,-2.1185 l -7.678767,-7.61471 a 1.5040573,1.496248 0 0 0 -1.079378,-0.45146 z"
             style="font-style:normal;font-variant:normal;font-weight:normal;font-stretch:normal;font-size:medium;line-height:normal;font-family:sans-serif;text-indent:0;text-align:start;text-decoration:none;text-decoration-line:none;text-decoration-style:solid;letter-spacing:normal;word-spacing:normal;text-transform:none;writing-mode:lr-tb;direction:ltr;baseline-shift:baseline;text-anchor:start;white-space:normal;clip-rule:nonzero;display:inline;overflow:visible;visibility:visible;opacity:1;isolation:auto;mix-blend-mode:normal;color-interpolation:sRGB;color-interpolation-filters:linearRGB;solid-opacity:1;fill:url(#linearGradient13);fill-opacity:1;fill-rule:nonzero;stroke:none;stroke-width:3.6248;stroke-linecap:round;stroke-linejoin:round;stroke-miterlimit:4;stroke-dasharray:none;stroke-dashoffset:0;stroke-opacity:1;color-rendering:auto;image-rendering:auto;shape-rendering:auto;text-rendering:auto;enable-background:accumulate"
             id="path3" />
          <path
             d="m 53.800268,987.52575 a 1.5040573,1.496248 0 0 0 -1.397018,1.10441 l -7.678767,26.64744 a 1.5040573,1.496248 0 1 0 2.891275,0.8255 l 7.678787,-26.64912 a 1.5040573,1.496248 0 0 0 -1.494277,-1.92823 z"
             style="font-style:normal;font-variant:normal;font-weight:normal;font-stretch:normal;font-size:medium;line-height:normal;font-family:sans-serif;text-indent:0;text-align:start;text-decoration:none;text-decoration-line:none;text-decoration-style:solid;letter-spacing:normal;word-spacing:normal;text-transform:none;writing-mode:lr-tb;direction:ltr;baseline-shift:baseline;text-anchor:start;white-space:normal;clip-rule:nonzero;display:inline;overflow:visible;visibility:visible;opacity:1;isolation:auto;mix-blend-mode:normal;color-interpolation:sRGB;color-interpolation-filters:linearRGB;solid-opacity:1;fill:url(#linearGradient14);fill-opacity:1;fill-rule:nonzero;stroke:none;stroke-width:3.6248;stroke-linecap:round;stroke-linejoin:round;stroke-miterlimit:4;stroke-dasharray:none;stroke-dashoffset:0;stroke-opacity:1;color-rendering:auto;image-rendering:auto;shape-rendering:auto;text-rendering:auto;enable-background:accumulate"
             id="path4" />
        </g>
      </g>
      <g
         id="SvgjsG5131"
         featureKey="nameFeature-0"
         transform="matrix(1.9290125,0,0,1.9290125,0.07715859,164.31481)"
         fill="url(#SvgjsLinearGradient5137)"
         style="fill:url(#linearGradient18)">
        <path
           id="path5"
           d="m 35.165062,22.568488 c -0.01756,1.75e-4 -0.03512,6e-5 -0.05268,2.36e-4 -0.140963,0.0017 -0.281926,0.0014 -0.422888,0.0031 0.02847,0.009 0.05716,0.01736 0.08564,0.02634 0.130413,-0.009 0.259383,-0.02099 0.38993,-0.02965 z"
           style="fill:url(#linearGradient17)" />
      </g>
    </g>
  </g>
</svg>
